<svg width="300" height="57" viewBox="0 0 300 57" fill="none" xmlns="http://www.w3.org/2000/svg">
<path d="M0.5 16.1831C0.5 7.34655 7.66344 0.183105 16.5 0.183105H283.167C292.003 0.183105 299.167 7.34655 299.167 16.1831V40.1831C299.167 49.0197 292.003 56.1831 283.167 56.1831H16.5C7.66342 56.1831 0.5 49.0197 0.5 40.1831V16.1831Z" fill="#9534D2"/>
<path d="M114.976 22.5467V34.1831H112.885V24.2967H107.794V34.1831H105.703V22.5467H114.976ZM121.213 34.3536C120.36 34.3536 119.622 34.1661 118.997 33.7911C118.372 33.4161 117.887 32.8914 117.542 32.2172C117.201 31.543 117.031 30.7551 117.031 29.8536C117.031 28.952 117.201 28.1623 117.542 27.4842C117.887 26.8062 118.372 26.2797 118.997 25.9047C119.622 25.5297 120.36 25.3422 121.213 25.3422C122.065 25.3422 122.804 25.5297 123.429 25.9047C124.054 26.2797 124.537 26.8062 124.878 27.4842C125.222 28.1623 125.395 28.952 125.395 29.8536C125.395 30.7551 125.222 31.543 124.878 32.2172C124.537 32.8914 124.054 33.4161 123.429 33.7911C122.804 34.1661 122.065 34.3536 121.213 34.3536ZM121.224 32.7058C121.686 32.7058 122.073 32.5789 122.383 32.3252C122.694 32.0676 122.925 31.7229 123.076 31.2911C123.232 30.8592 123.309 30.3782 123.309 29.8479C123.309 29.3138 123.232 28.8308 123.076 28.399C122.925 27.9634 122.694 27.6168 122.383 27.3592C122.073 27.1017 121.686 26.9729 121.224 26.9729C120.751 26.9729 120.357 27.1017 120.042 27.3592C119.732 27.6168 119.499 27.9634 119.343 28.399C119.192 28.8308 119.116 29.3138 119.116 29.8479C119.116 30.3782 119.192 30.8592 119.343 31.2911C119.499 31.7229 119.732 32.0676 120.042 32.3252C120.357 32.5789 120.751 32.7058 121.224 32.7058ZM126.368 36.7172V32.4899H127.061C127.246 32.346 127.402 32.1509 127.527 31.9047C127.652 31.6547 127.754 31.3611 127.833 31.024C127.917 30.6831 127.985 30.3024 128.038 29.882C128.091 29.4577 128.138 29.0013 128.18 28.5127L128.43 25.4558H134.737V32.4899H136.089V36.7172H134.101V34.1831H128.39V36.7172H126.368ZM129.174 32.4899H132.771V27.1149H130.214L130.078 28.5127C130.002 29.4369 129.902 30.2286 129.777 30.8877C129.652 31.5467 129.451 32.0808 129.174 32.4899ZM137.625 37.4558V25.4558H139.647V26.899H139.767C139.873 26.6869 140.022 26.4615 140.216 26.2229C140.409 25.9805 140.67 25.774 141 25.6036C141.329 25.4293 141.75 25.3422 142.261 25.3422C142.935 25.3422 143.543 25.5145 144.085 25.8592C144.63 26.2002 145.062 26.7058 145.38 27.3763C145.702 28.043 145.863 28.8611 145.863 29.8308C145.863 30.7892 145.706 31.6036 145.392 32.274C145.077 32.9445 144.649 33.4558 144.108 33.8081C143.566 34.1604 142.952 34.3365 142.267 34.3365C141.767 34.3365 141.352 34.2532 141.022 34.0865C140.693 33.9198 140.428 33.7191 140.227 33.4842C140.03 33.2456 139.877 33.0202 139.767 32.8081H139.682V37.4558H137.625ZM139.642 29.8195C139.642 30.3839 139.721 30.8782 139.88 31.3024C140.043 31.7267 140.276 32.0581 140.579 32.2967C140.886 32.5316 141.257 32.649 141.693 32.649C142.147 32.649 142.528 32.5278 142.835 32.2854C143.142 32.0392 143.373 31.7039 143.528 31.2797C143.687 30.8517 143.767 30.3649 143.767 29.8195C143.767 29.2778 143.689 28.7967 143.534 28.3763C143.378 27.9558 143.147 27.6263 142.841 27.3877C142.534 27.149 142.151 27.0297 141.693 27.0297C141.253 27.0297 140.88 27.1452 140.574 27.3763C140.267 27.6073 140.034 27.9312 139.875 28.3479C139.719 28.7645 139.642 29.2551 139.642 29.8195ZM151.432 34.3536C150.579 34.3536 149.841 34.1661 149.216 33.7911C148.591 33.4161 148.106 32.8914 147.761 32.2172C147.42 31.543 147.25 30.7551 147.25 29.8536C147.25 28.952 147.42 28.1623 147.761 27.4842C148.106 26.8062 148.591 26.2797 149.216 25.9047C149.841 25.5297 150.579 25.3422 151.432 25.3422C152.284 25.3422 153.022 25.5297 153.647 25.9047C154.272 26.2797 154.755 26.8062 155.096 27.4842C155.441 28.1623 155.613 28.952 155.613 29.8536C155.613 30.7551 155.441 31.543 155.096 32.2172C154.755 32.8914 154.272 33.4161 153.647 33.7911C153.022 34.1661 152.284 34.3536 151.432 34.3536ZM151.443 32.7058C151.905 32.7058 152.291 32.5789 152.602 32.3252C152.913 32.0676 153.144 31.7229 153.295 31.2911C153.45 30.8592 153.528 30.3782 153.528 29.8479C153.528 29.3138 153.45 28.8308 153.295 28.399C153.144 27.9634 152.913 27.6168 152.602 27.3592C152.291 27.1017 151.905 26.9729 151.443 26.9729C150.969 26.9729 150.575 27.1017 150.261 27.3592C149.95 27.6168 149.717 27.9634 149.562 28.399C149.411 28.8308 149.335 29.3138 149.335 29.8479C149.335 30.3782 149.411 30.8592 149.562 31.2911C149.717 31.7229 149.95 32.0676 150.261 32.3252C150.575 32.5789 150.969 32.7058 151.443 32.7058ZM164.353 22.2286L165.069 23.5581C164.816 23.7778 164.531 23.9369 164.217 24.0354C163.903 24.1339 163.533 24.1983 163.109 24.2286C162.689 24.2551 162.189 24.274 161.609 24.2854C160.958 24.3005 160.425 24.4236 160.012 24.6547C159.6 24.8858 159.283 25.2361 159.064 25.7058C158.844 26.1717 158.7 26.7664 158.632 27.4899H158.728C159.001 26.9558 159.384 26.5486 159.876 26.2683C160.369 25.988 160.946 25.8479 161.609 25.8479C162.333 25.8479 162.971 26.0108 163.524 26.3365C164.081 26.6585 164.514 27.1263 164.825 27.7399C165.139 28.3536 165.297 29.096 165.297 29.9672C165.297 30.8649 165.128 31.6433 164.791 32.3024C164.454 32.9577 163.975 33.4634 163.353 33.8195C162.736 34.1755 162.003 34.3536 161.155 34.3536C160.31 34.3536 159.575 34.1698 158.95 33.8024C158.329 33.4312 157.848 32.8839 157.507 32.1604C157.17 31.4331 157.001 30.5373 157.001 29.4729V28.6888C157.001 26.6358 157.384 25.1036 158.149 24.0922C158.914 23.0808 160.048 22.5657 161.552 22.5467C161.999 22.5392 162.399 22.5373 162.751 22.5411C163.107 22.5448 163.418 22.5278 163.683 22.4899C163.948 22.452 164.172 22.3649 164.353 22.2286ZM161.166 32.7058C161.586 32.7058 161.95 32.5979 162.257 32.382C162.564 32.1623 162.798 31.8517 162.961 31.4502C163.128 31.0486 163.211 30.5733 163.211 30.024C163.211 29.4823 163.128 29.0221 162.961 28.6433C162.795 28.2608 162.558 27.9691 162.251 27.7683C161.944 27.5676 161.579 27.4672 161.155 27.4672C160.836 27.4672 160.55 27.524 160.297 27.6377C160.043 27.7513 159.827 27.918 159.649 28.1377C159.471 28.3573 159.334 28.6244 159.24 28.9388C159.145 29.2532 159.094 29.6149 159.086 30.024C159.086 30.846 159.272 31.4994 159.643 31.9842C160.014 32.4653 160.522 32.7058 161.166 32.7058ZM173.041 28.9672V30.6547H168.393V28.9672H173.041ZM169.03 25.4558V34.1831H167.047V25.4558H169.03ZM174.387 25.4558V34.1831H172.41V25.4558H174.387ZM180.332 34.3536C179.457 34.3536 178.701 34.1717 178.065 33.8081C177.432 33.4407 176.946 32.9217 176.605 32.2513C176.264 31.577 176.093 30.7835 176.093 29.8706C176.093 28.9729 176.264 28.185 176.605 27.507C176.949 26.8252 177.431 26.2948 178.048 25.9161C178.665 25.5335 179.391 25.3422 180.224 25.3422C180.762 25.3422 181.27 25.4293 181.747 25.6036C182.228 25.774 182.652 26.0392 183.02 26.399C183.391 26.7589 183.682 27.2172 183.895 27.774C184.107 28.327 184.213 28.9861 184.213 29.7513V30.382H177.059V28.9956H182.241C182.237 28.6017 182.152 28.2513 181.985 27.9445C181.819 27.6339 181.586 27.3895 181.287 27.2115C180.991 27.0335 180.646 26.9445 180.253 26.9445C179.832 26.9445 179.463 27.0467 179.145 27.2513C178.826 27.452 178.578 27.7172 178.4 28.0467C178.226 28.3725 178.137 28.7305 178.133 29.1206V30.3308C178.133 30.8384 178.226 31.274 178.412 31.6377C178.597 31.9975 178.857 32.274 179.19 32.4672C179.523 32.6566 179.914 32.7513 180.36 32.7513C180.66 32.7513 180.931 32.7096 181.173 32.6263C181.415 32.5392 181.626 32.4123 181.804 32.2456C181.982 32.0789 182.116 31.8725 182.207 31.6263L184.128 31.8422C184.006 32.3498 183.775 32.793 183.434 33.1717C183.097 33.5467 182.665 33.8384 182.139 34.0467C181.612 34.2513 181.01 34.3536 180.332 34.3536ZM189.816 34.3536C188.941 34.3536 188.186 34.1717 187.549 33.8081C186.917 33.4407 186.43 32.9217 186.089 32.2513C185.748 31.577 185.578 30.7835 185.578 29.8706C185.578 28.9729 185.748 28.185 186.089 27.507C186.434 26.8252 186.915 26.2948 187.532 25.9161C188.15 25.5335 188.875 25.3422 189.708 25.3422C190.246 25.3422 190.754 25.4293 191.231 25.6036C191.712 25.774 192.137 26.0392 192.504 26.399C192.875 26.7589 193.167 27.2172 193.379 27.774C193.591 28.327 193.697 28.9861 193.697 29.7513V30.382H186.544V28.9956H191.726C191.722 28.6017 191.637 28.2513 191.47 27.9445C191.303 27.6339 191.07 27.3895 190.771 27.2115C190.476 27.0335 190.131 26.9445 189.737 26.9445C189.316 26.9445 188.947 27.0467 188.629 27.2513C188.311 27.452 188.063 27.7172 187.885 28.0467C187.71 28.3725 187.621 28.7305 187.618 29.1206V30.3308C187.618 30.8384 187.71 31.274 187.896 31.6377C188.082 31.9975 188.341 32.274 188.674 32.4672C189.008 32.6566 189.398 32.7513 189.845 32.7513C190.144 32.7513 190.415 32.7096 190.657 32.6263C190.9 32.5392 191.11 32.4123 191.288 32.2456C191.466 32.0789 191.601 31.8725 191.691 31.6263L193.612 31.8422C193.491 32.3498 193.26 32.793 192.919 33.1717C192.582 33.5467 192.15 33.8384 191.623 34.0467C191.097 34.2513 190.494 34.3536 189.816 34.3536Z" fill="white"/>
</svg>
