<svg width="92" height="25" viewBox="0 0 92 25" fill="none" xmlns="http://www.w3.org/2000/svg">
<path d="M14.9706 20.9368C14.9706 20.564 14.6684 20.2618 14.2956 20.2618H5.32353C5.04739 20.2618 4.82353 20.038 4.82353 19.7618V5.46182C4.82353 5.18567 5.04739 4.96182 5.32353 4.96182H14.2956C14.6684 4.96182 14.9706 4.65961 14.9706 4.28682C14.9706 3.91402 14.6684 3.61182 14.2956 3.61182H5.5C4.39543 3.61182 3.5 4.50725 3.5 5.61182V19.6118C3.5 20.7164 4.39543 21.6118 5.5 21.6118H14.2956C14.6684 21.6118 14.9706 21.3096 14.9706 20.9368ZM13.3947 12.2518C13.0468 12.2518 12.7647 12.5339 12.7647 12.8818C12.7647 13.2298 13.0468 13.5118 13.3947 13.5118H18.9412L16.7698 15.7266C16.5056 15.9961 16.5056 16.4275 16.7698 16.697C17.0415 16.9742 17.4879 16.9742 17.7596 16.697L20.8137 13.5819C21.1949 13.193 21.1949 12.5706 20.8137 12.1817L17.7596 9.06662C17.4879 8.78945 17.0415 8.78945 16.7698 9.06662C16.5056 9.33613 16.5056 9.76751 16.7698 10.037L18.9412 12.2518H13.3947Z" fill="#141C24"/>
<path d="M41.7784 18.6118V6.97545H46.0398C46.8655 6.97545 47.5492 7.11182 48.0909 7.38454C48.6326 7.65348 49.0379 8.01901 49.3068 8.48113C49.5758 8.93947 49.7102 9.45651 49.7102 10.0323C49.7102 10.5171 49.6212 10.9262 49.4432 11.2595C49.2652 11.5891 49.0265 11.8542 48.7273 12.055C48.4318 12.252 48.1061 12.3959 47.75 12.4868V12.6005C48.1364 12.6194 48.5133 12.7444 48.8807 12.9755C49.2519 13.2027 49.5587 13.5266 49.8011 13.947C50.0436 14.3675 50.1648 14.8789 50.1648 15.4811C50.1648 16.0758 50.0246 16.6099 49.7443 17.0834C49.4678 17.5531 49.0398 17.9262 48.4602 18.2027C47.8807 18.4755 47.1402 18.6118 46.2386 18.6118H41.7784ZM43.5341 17.1061H46.0682C46.9091 17.1061 47.5114 16.9433 47.875 16.6175C48.2386 16.2917 48.4205 15.8845 48.4205 15.3959C48.4205 15.0285 48.3277 14.6914 48.142 14.3845C47.9564 14.0777 47.6913 13.8334 47.3466 13.6516C47.0057 13.4698 46.6004 13.3789 46.1307 13.3789H43.5341V17.1061ZM43.5341 12.0095H45.8864C46.2803 12.0095 46.6345 11.9338 46.9489 11.7823C47.267 11.6308 47.5189 11.4186 47.7045 11.1459C47.8939 10.8694 47.9886 10.5436 47.9886 10.1686C47.9886 9.68757 47.8201 9.28416 47.483 8.95841C47.1458 8.63265 46.6288 8.46977 45.9318 8.46977H43.5341V12.0095ZM53.3892 12.8845H55.9233C56.9915 12.8845 57.8134 13.1497 58.3892 13.68C58.965 14.2103 59.2528 14.894 59.2528 15.7311C59.2528 16.2766 59.1241 16.7671 58.8665 17.2027C58.6089 17.6383 58.232 17.983 57.7358 18.2368C57.2396 18.4868 56.6354 18.6118 55.9233 18.6118H52.1108V9.88454H53.7756V17.1459H55.9233C56.4119 17.1459 56.8134 17.019 57.1278 16.7652C57.4422 16.5076 57.5994 16.18 57.5994 15.7823C57.5994 15.3618 57.4422 15.019 57.1278 14.7539C56.8134 14.4849 56.4119 14.3505 55.9233 14.3505H53.3892V12.8845ZM60.4915 18.6118V9.88454H62.1903V18.6118H60.4915ZM66.1349 16.2311L69.9815 9.88454H71.8111V18.6118H70.1463V12.2595L66.3168 18.6118H64.4702V9.88454H66.1349V16.2311ZM69.2543 6.93H70.652C70.652 7.57015 70.4247 8.09098 69.9702 8.4925C69.5194 8.89023 68.9096 9.08909 68.1406 9.08909C67.3755 9.08909 66.7675 8.89023 66.3168 8.4925C65.866 8.09098 65.6406 7.57015 65.6406 6.93H67.0327C67.0327 7.21409 67.116 7.46598 67.2827 7.68568C67.4493 7.90159 67.7353 8.00954 68.1406 8.00954C68.5384 8.00954 68.8224 7.90159 68.9929 7.68568C69.1671 7.46977 69.2543 7.21788 69.2543 6.93ZM73.0128 11.3505V9.88454H80.3764V11.3505H77.5298V18.6118H75.8707V11.3505H73.0128ZM83.8381 16.2311L87.6847 9.88454H89.5142V18.6118H87.8494V12.2595L84.0199 18.6118H82.1733V9.88454H83.8381V16.2311Z" fill="#344051"/>
</svg>
