<svg width="49" height="13" viewBox="0 0 49 13" fill="none" xmlns="http://www.w3.org/2000/svg">
<path d="M0.778409 12.6118V0.975452H5.03977C5.86553 0.975452 6.54924 1.11182 7.09091 1.38454C7.63258 1.65348 8.03788 2.01901 8.30682 2.48113C8.57576 2.93947 8.71023 3.45651 8.71023 4.03227C8.71023 4.51712 8.62121 4.92621 8.44318 5.25954C8.26515 5.58909 8.02652 5.85424 7.72727 6.055C7.43182 6.25197 7.10606 6.39591 6.75 6.48682V6.60045C7.13636 6.61939 7.51326 6.74439 7.88068 6.97545C8.25189 7.20273 8.55871 7.52659 8.80114 7.94704C9.04356 8.3675 9.16477 8.87886 9.16477 9.48113C9.16477 10.0758 9.02462 10.6099 8.74432 11.0834C8.4678 11.5531 8.03977 11.9262 7.46023 12.2027C6.88068 12.4755 6.14015 12.6118 5.23864 12.6118H0.778409ZM2.53409 11.1061H5.06818C5.90909 11.1061 6.51136 10.9433 6.875 10.6175C7.23864 10.2917 7.42045 9.88454 7.42045 9.39591C7.42045 9.02848 7.32765 8.69136 7.14205 8.38454C6.95644 8.07773 6.69129 7.83341 6.34659 7.65159C6.00568 7.46977 5.60038 7.37886 5.13068 7.37886H2.53409V11.1061ZM2.53409 6.00954H4.88636C5.2803 6.00954 5.63447 5.93379 5.94886 5.78227C6.26705 5.63076 6.51894 5.41863 6.70455 5.14591C6.89394 4.86939 6.98864 4.54363 6.98864 4.16863C6.98864 3.68757 6.82008 3.28416 6.48295 2.95841C6.14583 2.63265 5.62879 2.46977 4.93182 2.46977H2.53409V6.00954ZM12.3892 6.88454H14.9233C15.9915 6.88454 16.8134 7.14969 17.3892 7.68C17.965 8.2103 18.2528 8.89401 18.2528 9.73113C18.2528 10.2766 18.1241 10.7671 17.8665 11.2027C17.6089 11.6383 17.232 11.983 16.7358 12.2368C16.2396 12.4868 15.6354 12.6118 14.9233 12.6118H11.1108V3.88454H12.7756V11.1459H14.9233C15.4119 11.1459 15.8134 11.019 16.1278 10.7652C16.4422 10.5076 16.5994 10.18 16.5994 9.78227C16.5994 9.36182 16.4422 9.01901 16.1278 8.75386C15.8134 8.48492 15.4119 8.35045 14.9233 8.35045H12.3892V6.88454ZM19.4915 12.6118V3.88454H21.1903V12.6118H19.4915ZM25.1349 10.2311L28.9815 3.88454H30.8111V12.6118H29.1463V6.25954L25.3168 12.6118H23.4702V3.88454H25.1349V10.2311ZM28.2543 0.929997H29.652C29.652 1.57015 29.4247 2.09098 28.9702 2.4925C28.5194 2.89023 27.9096 3.08909 27.1406 3.08909C26.3755 3.08909 25.7675 2.89023 25.3168 2.4925C24.866 2.09098 24.6406 1.57015 24.6406 0.929997H26.0327C26.0327 1.21409 26.116 1.46598 26.2827 1.68568C26.4493 1.90159 26.7353 2.00954 27.1406 2.00954C27.5384 2.00954 27.8224 1.90159 27.9929 1.68568C28.1671 1.46977 28.2543 1.21788 28.2543 0.929997ZM32.0128 5.35045V3.88454H39.3764V5.35045H36.5298V12.6118H34.8707V5.35045H32.0128ZM42.8381 10.2311L46.6847 3.88454H48.5142V12.6118H46.8494V6.25954L43.0199 12.6118H41.1733V3.88454H42.8381V10.2311Z" fill="#344051"/>
</svg>
