<svg width="59" height="13" viewBox="0 0 59 13" fill="none" xmlns="http://www.w3.org/2000/svg">
<path d="M0.778409 12.6118V0.975452H8.03409V2.48682H2.53409V5.66863H5.13636C6 5.66863 6.73295 5.80879 7.33523 6.08909C7.94129 6.36939 8.40341 6.76523 8.72159 7.27659C9.04356 7.78795 9.20455 8.39023 9.20455 9.08341C9.20455 9.77659 9.04356 10.3883 8.72159 10.9186C8.40341 11.4489 7.94129 11.8637 7.33523 12.163C6.73295 12.4622 6 12.6118 5.13636 12.6118H0.778409ZM2.53409 11.1345H5.13636C5.63636 11.1345 6.05871 11.0361 6.40341 10.8391C6.75189 10.6421 7.01515 10.3864 7.19318 10.072C7.375 9.75765 7.46591 9.42053 7.46591 9.06068C7.46591 8.53795 7.26515 8.08909 6.86364 7.71409C6.46212 7.3353 5.88636 7.14591 5.13636 7.14591H2.53409V11.1345ZM12.8068 10.2311L16.6534 3.88454H18.483V12.6118H16.8182V6.25954L12.9886 12.6118H11.142V3.88454H12.8068V10.2311ZM20.0795 12.6118L20.0739 11.1402H20.3864C20.6288 11.1402 20.8314 11.0891 20.9943 10.9868C21.161 10.8808 21.2973 10.7027 21.4034 10.4527C21.5095 10.2027 21.5909 9.85803 21.6477 9.41863C21.7045 8.97545 21.7462 8.41863 21.7727 7.74818L21.9261 3.88454H28.017V12.6118H26.3523V5.35045H23.5L23.3636 8.31636C23.3295 9.03606 23.2557 9.66485 23.142 10.2027C23.0322 10.7406 22.8712 11.1895 22.6591 11.5493C22.447 11.9054 22.1742 12.1724 21.8409 12.3505C21.5076 12.5247 21.1023 12.6118 20.625 12.6118H20.0795ZM34.044 12.788C33.1842 12.788 32.4437 12.6042 31.8224 12.2368C31.205 11.8656 30.7277 11.3448 30.3906 10.6743C30.0573 10.0001 29.8906 9.2103 29.8906 8.305C29.8906 7.41106 30.0573 6.62318 30.3906 5.94136C30.7277 5.25954 31.1974 4.72735 31.7997 4.34477C32.4058 3.9622 33.1141 3.77091 33.9247 3.77091C34.4171 3.77091 34.8944 3.85235 35.3565 4.01523C35.8187 4.1781 36.2334 4.43379 36.6009 4.78227C36.9683 5.13076 37.258 5.58341 37.4702 6.14023C37.6823 6.69326 37.7884 7.3656 37.7884 8.15727V8.75954H30.8509V7.48682H36.1236C36.1236 7.03985 36.0327 6.64401 35.8509 6.29932C35.669 5.95083 35.4134 5.67621 35.0838 5.47545C34.758 5.2747 34.3755 5.17432 33.9361 5.17432C33.4588 5.17432 33.0421 5.29174 32.6861 5.52659C32.3338 5.75765 32.0611 6.06068 31.8679 6.43568C31.6785 6.80689 31.5838 7.2103 31.5838 7.64591V8.64023C31.5838 9.22356 31.6861 9.71977 31.8906 10.1289C32.099 10.538 32.3887 10.8505 32.7599 11.0664C33.1312 11.2785 33.5649 11.3845 34.0611 11.3845C34.383 11.3845 34.6766 11.3391 34.9418 11.2482C35.2069 11.1535 35.4361 11.0133 35.6293 10.8277C35.8224 10.6421 35.9702 10.413 36.0724 10.1402L37.6804 10.43C37.5516 10.9035 37.3205 11.3183 36.9872 11.6743C36.6577 12.0266 36.2429 12.3012 35.7429 12.4982C35.2467 12.6914 34.6804 12.788 34.044 12.788ZM38.9034 5.35045V3.88454H46.267V5.35045H43.4205V12.6118H41.7614V5.35045H38.9034ZM49.3423 6.88454H51.8764C52.9446 6.88454 53.7666 7.14969 54.3423 7.68C54.9181 8.2103 55.206 8.89401 55.206 9.73113C55.206 10.2766 55.0772 10.7671 54.8196 11.2027C54.562 11.6383 54.1851 11.983 53.6889 12.2368C53.1927 12.4868 52.5885 12.6118 51.8764 12.6118H48.0639V3.88454H49.7287V11.1459H51.8764C52.3651 11.1459 52.7666 11.019 53.081 10.7652C53.3954 10.5076 53.5526 10.18 53.5526 9.78227C53.5526 9.36182 53.3954 9.01901 53.081 8.75386C52.7666 8.48492 52.3651 8.35045 51.8764 8.35045H49.3423V6.88454ZM56.4446 12.6118V3.88454H58.1435V12.6118H56.4446Z" fill="#344051"/>
</svg>
