<svg width="70" height="16" viewBox="0 0 70 16" fill="none" xmlns="http://www.w3.org/2000/svg">
<path d="M9.875 0.975452V12.6118H8.125V2.47545H2.64773V12.6118H0.897727V0.975452H9.875ZM12.4233 15.8845V3.88454H14.0824V5.29932H14.2244C14.3229 5.1175 14.465 4.90727 14.6506 4.66863C14.8362 4.43 15.0938 4.22166 15.4233 4.04363C15.7528 3.86182 16.1884 3.77091 16.7301 3.77091C17.4347 3.77091 18.0634 3.94894 18.6165 4.305C19.1695 4.66106 19.6032 5.17432 19.9176 5.84477C20.2358 6.51523 20.3949 7.32204 20.3949 8.26523C20.3949 9.20841 20.2377 10.0171 19.9233 10.6914C19.6089 11.3618 19.1771 11.8789 18.6278 12.2425C18.0786 12.6023 17.4517 12.7823 16.7472 12.7823C16.2169 12.7823 15.7831 12.6933 15.446 12.5152C15.1127 12.3372 14.8513 12.1289 14.6619 11.8902C14.4725 11.6516 14.3267 11.4395 14.2244 11.2539H14.1222V15.8845H12.4233ZM14.0881 8.24818C14.0881 8.86182 14.1771 9.3997 14.3551 9.86182C14.5331 10.3239 14.7907 10.6857 15.1278 10.947C15.465 11.2046 15.8778 11.3334 16.3665 11.3334C16.8741 11.3334 17.2983 11.1989 17.6392 10.93C17.9801 10.6573 18.2377 10.288 18.4119 9.82204C18.59 9.35613 18.679 8.83151 18.679 8.24818C18.679 7.67242 18.5919 7.15538 18.4176 6.69704C18.2472 6.23871 17.9896 5.87697 17.6449 5.61182C17.304 5.34666 16.8778 5.21409 16.3665 5.21409C15.8741 5.21409 15.4574 5.34098 15.1165 5.59477C14.7794 5.84856 14.5237 6.20273 14.3494 6.65727C14.1752 7.11182 14.0881 7.64212 14.0881 8.24818ZM25.9744 12.788C25.1563 12.788 24.4422 12.6005 23.8324 12.2255C23.2225 11.8505 22.7491 11.3258 22.4119 10.6516C22.0748 9.97735 21.9062 9.18947 21.9062 8.28795C21.9062 7.38265 22.0748 6.59098 22.4119 5.91295C22.7491 5.23492 23.2225 4.70841 23.8324 4.33341C24.4422 3.95841 25.1563 3.77091 25.9744 3.77091C26.7926 3.77091 27.5066 3.95841 28.1165 4.33341C28.7263 4.70841 29.1998 5.23492 29.5369 5.91295C29.8741 6.59098 30.0426 7.38265 30.0426 8.28795C30.0426 9.18947 29.8741 9.97735 29.5369 10.6516C29.1998 11.3258 28.7263 11.8505 28.1165 12.2255C27.5066 12.6005 26.7926 12.788 25.9744 12.788ZM25.9801 11.3618C26.5104 11.3618 26.9498 11.2217 27.2983 10.9414C27.6468 10.6611 27.9044 10.288 28.071 9.82204C28.2415 9.35613 28.3267 8.84288 28.3267 8.28227C28.3267 7.72545 28.2415 7.21409 28.071 6.74818C27.9044 6.27848 27.6468 5.90159 27.2983 5.6175C26.9498 5.33341 26.5104 5.19136 25.9801 5.19136C25.446 5.19136 25.0028 5.33341 24.6506 5.6175C24.3021 5.90159 24.0426 6.27848 23.8722 6.74818C23.7055 7.21409 23.6222 7.72545 23.6222 8.28227C23.6222 8.84288 23.7055 9.35613 23.8722 9.82204C24.0426 10.288 24.3021 10.6611 24.6506 10.9414C25.0028 11.2217 25.446 11.3618 25.9801 11.3618ZM35.6946 15.5834V0.975452H37.3935V15.5834H35.6946ZM35.6946 12.788C35.0772 12.788 34.5147 12.6819 34.0071 12.4698C33.4995 12.2539 33.062 11.947 32.6946 11.5493C32.3272 11.1516 32.0431 10.6762 31.8423 10.1232C31.6454 9.57015 31.5469 8.95841 31.5469 8.28795C31.5469 7.60992 31.6454 6.99439 31.8423 6.44136C32.0431 5.88833 32.3272 5.41295 32.6946 5.01523C33.062 4.6175 33.4995 4.31068 34.0071 4.09477C34.5147 3.87886 35.0772 3.77091 35.6946 3.77091H36.1151V12.788H35.6946ZM35.6946 11.3561H35.9332V5.20273H35.6946C35.2855 5.20273 34.9295 5.28606 34.6264 5.45273C34.3234 5.6156 34.0715 5.84098 33.8707 6.12886C33.67 6.41295 33.5185 6.7406 33.4162 7.11182C33.3177 7.48303 33.2685 7.87507 33.2685 8.28795C33.2685 8.84098 33.3575 9.35045 33.5355 9.81636C33.7135 10.2785 33.9825 10.6516 34.3423 10.9357C34.7022 11.216 35.1529 11.3561 35.6946 11.3561ZM37.3935 12.788H36.9673V3.77091H37.3935C38.0109 3.77091 38.5734 3.87886 39.081 4.09477C39.5885 4.31068 40.0241 4.6175 40.3878 5.01523C40.7552 5.41295 41.0374 5.88833 41.2344 6.44136C41.4351 6.99439 41.5355 7.60992 41.5355 8.28795C41.5355 8.95841 41.4351 9.57015 41.2344 10.1232C41.0374 10.6762 40.7552 11.1516 40.3878 11.5493C40.0241 11.947 39.5885 12.2539 39.081 12.4698C38.5734 12.6819 38.0109 12.788 37.3935 12.788ZM37.3935 11.3561C37.8026 11.3561 38.1586 11.2766 38.4616 11.1175C38.7647 10.9546 39.0166 10.7311 39.2173 10.447C39.4181 10.1592 39.5677 9.83151 39.6662 9.46409C39.7647 9.09288 39.8139 8.70083 39.8139 8.28795C39.8139 7.73871 39.7249 7.23113 39.5469 6.76523C39.3726 6.29553 39.1056 5.91863 38.7457 5.63454C38.3859 5.34666 37.9351 5.20273 37.3935 5.20273H37.1491V11.3561H37.3935ZM45.0881 10.2311L48.9347 3.88454H50.7642V12.6118H49.0994V6.25954L45.2699 12.6118H43.4233V3.88454H45.0881V10.2311ZM52.3608 12.6118L52.3551 11.1402H52.6676C52.91 11.1402 53.1127 11.0891 53.2756 10.9868C53.4422 10.8808 53.5786 10.7027 53.6847 10.4527C53.7907 10.2027 53.8722 9.85803 53.929 9.41863C53.9858 8.97545 54.0275 8.41863 54.054 7.74818L54.2074 3.88454H60.2983V12.6118H58.6335V5.35045H55.7812L55.6449 8.31636C55.6108 9.03606 55.5369 9.66485 55.4233 10.2027C55.3134 10.7406 55.1525 11.1895 54.9403 11.5493C54.7282 11.9054 54.4555 12.1724 54.1222 12.3505C53.7888 12.5247 53.3835 12.6118 52.9062 12.6118H52.3608ZM63.8423 6.88454H66.3764C67.4446 6.88454 68.2666 7.14969 68.8423 7.68C69.4181 8.2103 69.706 8.89401 69.706 9.73113C69.706 10.2766 69.5772 10.7671 69.3196 11.2027C69.062 11.6383 68.6851 11.983 68.1889 12.2368C67.6927 12.4868 67.0885 12.6118 66.3764 12.6118H62.5639V3.88454H64.2287V11.1459H66.3764C66.8651 11.1459 67.2666 11.019 67.581 10.7652C67.8954 10.5076 68.0526 10.18 68.0526 9.78227C68.0526 9.36182 67.8954 9.01901 67.581 8.75386C67.2666 8.48492 66.8651 8.35045 66.3764 8.35045H63.8423V6.88454Z" fill="#344051"/>
</svg>
