<svg width="112" height="25" viewBox="0 0 112 25" fill="none" xmlns="http://www.w3.org/2000/svg">
<path fill-rule="evenodd" clip-rule="evenodd" d="M16.5 8.61182C16.5 10.821 14.7091 12.6118 12.5 12.6118C10.2909 12.6118 8.5 10.821 8.5 8.61182C8.5 6.40268 10.2909 4.61182 12.5 4.61182C14.7091 4.61182 16.5 6.40268 16.5 8.61182ZM15 8.61182C15 9.99253 13.8807 11.1118 12.5 11.1118C11.1193 11.1118 10 9.99253 10 8.61182C10 7.2311 11.1193 6.11182 12.5 6.11182C13.8807 6.11182 15 7.2311 15 8.61182Z" fill="#141C24"/>
<path fill-rule="evenodd" clip-rule="evenodd" d="M4.5 18.3838V20.6118H20.5V18.3838C20.5 16.7164 19.4657 15.224 17.9045 14.6385L17.7669 14.5869C14.3711 13.3135 10.6289 13.3135 7.23315 14.5869L7.09551 14.6385C5.53429 15.224 4.5 16.7164 4.5 18.3838ZM7.75984 15.9914C10.816 14.8453 14.184 14.8453 17.2402 15.9914L17.3778 16.043C18.3536 16.4089 19 17.3417 19 18.3838V19.1118H6V18.3838C6 17.3417 6.64643 16.4089 7.62219 16.043L7.75984 15.9914Z" fill="#141C24"/>
<path d="M50.875 6.97545V18.6118H49.125V8.47545H43.6477V18.6118H41.8977V6.97545H50.875ZM53.4233 21.8845V9.88454H55.0824V11.2993H55.2244C55.3229 11.1175 55.465 10.9073 55.6506 10.6686C55.8362 10.43 56.0938 10.2217 56.4233 10.0436C56.7528 9.86182 57.1884 9.77091 57.7301 9.77091C58.4347 9.77091 59.0634 9.94894 59.6165 10.305C60.1695 10.6611 60.6032 11.1743 60.9176 11.8448C61.2358 12.5152 61.3949 13.322 61.3949 14.2652C61.3949 15.2084 61.2377 16.0171 60.9233 16.6914C60.6089 17.3618 60.1771 17.8789 59.6278 18.2425C59.0786 18.6023 58.4517 18.7823 57.7472 18.7823C57.2169 18.7823 56.7831 18.6933 56.446 18.5152C56.1127 18.3372 55.8513 18.1289 55.6619 17.8902C55.4725 17.6516 55.3267 17.4395 55.2244 17.2539H55.1222V21.8845H53.4233ZM55.0881 14.2482C55.0881 14.8618 55.1771 15.3997 55.3551 15.8618C55.5331 16.3239 55.7907 16.6857 56.1278 16.947C56.465 17.2046 56.8778 17.3334 57.3665 17.3334C57.8741 17.3334 58.2983 17.1989 58.6392 16.93C58.9801 16.6573 59.2377 16.288 59.4119 15.822C59.59 15.3561 59.679 14.8315 59.679 14.2482C59.679 13.6724 59.5919 13.1554 59.4176 12.697C59.2472 12.2387 58.9896 11.877 58.6449 11.6118C58.304 11.3467 57.8778 11.2141 57.3665 11.2141C56.8741 11.2141 56.4574 11.341 56.1165 11.5948C55.7794 11.8486 55.5237 12.2027 55.3494 12.6573C55.1752 13.1118 55.0881 13.6421 55.0881 14.2482ZM66.9744 18.788C66.1563 18.788 65.4422 18.6005 64.8324 18.2255C64.2225 17.8505 63.7491 17.3258 63.4119 16.6516C63.0748 15.9773 62.9062 15.1895 62.9062 14.288C62.9062 13.3826 63.0748 12.591 63.4119 11.913C63.7491 11.2349 64.2225 10.7084 64.8324 10.3334C65.4422 9.95841 66.1563 9.77091 66.9744 9.77091C67.7926 9.77091 68.5066 9.95841 69.1165 10.3334C69.7263 10.7084 70.1998 11.2349 70.5369 11.913C70.8741 12.591 71.0426 13.3826 71.0426 14.288C71.0426 15.1895 70.8741 15.9773 70.5369 16.6516C70.1998 17.3258 69.7263 17.8505 69.1165 18.2255C68.5066 18.6005 67.7926 18.788 66.9744 18.788ZM66.9801 17.3618C67.5104 17.3618 67.9498 17.2217 68.2983 16.9414C68.6468 16.6611 68.9044 16.288 69.071 15.822C69.2415 15.3561 69.3267 14.8429 69.3267 14.2823C69.3267 13.7255 69.2415 13.2141 69.071 12.7482C68.9044 12.2785 68.6468 11.9016 68.2983 11.6175C67.9498 11.3334 67.5104 11.1914 66.9801 11.1914C66.446 11.1914 66.0028 11.3334 65.6506 11.6175C65.3021 11.9016 65.0426 12.2785 64.8722 12.7482C64.7055 13.2141 64.6222 13.7255 64.6222 14.2823C64.6222 14.8429 64.7055 15.3561 64.8722 15.822C65.0426 16.288 65.3021 16.6611 65.6506 16.9414C66.0028 17.2217 66.446 17.3618 66.9801 17.3618ZM76.6946 21.5834V6.97545H78.3935V21.5834H76.6946ZM76.6946 18.788C76.0772 18.788 75.5147 18.6819 75.0071 18.4698C74.4995 18.2539 74.062 17.947 73.6946 17.5493C73.3272 17.1516 73.0431 16.6762 72.8423 16.1232C72.6454 15.5701 72.5469 14.9584 72.5469 14.288C72.5469 13.6099 72.6454 12.9944 72.8423 12.4414C73.0431 11.8883 73.3272 11.413 73.6946 11.0152C74.062 10.6175 74.4995 10.3107 75.0071 10.0948C75.5147 9.87886 76.0772 9.77091 76.6946 9.77091H77.1151V18.788H76.6946ZM76.6946 17.3561H76.9332V11.2027H76.6946C76.2855 11.2027 75.9295 11.2861 75.6264 11.4527C75.3234 11.6156 75.0715 11.841 74.8707 12.1289C74.67 12.413 74.5185 12.7406 74.4162 13.1118C74.3177 13.483 74.2685 13.8751 74.2685 14.288C74.2685 14.841 74.3575 15.3505 74.5355 15.8164C74.7135 16.2785 74.9825 16.6516 75.3423 16.9357C75.7022 17.216 76.1529 17.3561 76.6946 17.3561ZM78.3935 18.788H77.9673V9.77091H78.3935C79.0109 9.77091 79.5734 9.87886 80.081 10.0948C80.5885 10.3107 81.0241 10.6175 81.3878 11.0152C81.7552 11.413 82.0374 11.8883 82.2344 12.4414C82.4351 12.9944 82.5355 13.6099 82.5355 14.288C82.5355 14.9584 82.4351 15.5701 82.2344 16.1232C82.0374 16.6762 81.7552 17.1516 81.3878 17.5493C81.0241 17.947 80.5885 18.2539 80.081 18.4698C79.5734 18.6819 79.0109 18.788 78.3935 18.788ZM78.3935 17.3561C78.8026 17.3561 79.1586 17.2766 79.4616 17.1175C79.7647 16.9546 80.0166 16.7311 80.2173 16.447C80.4181 16.1592 80.5677 15.8315 80.6662 15.4641C80.7647 15.0929 80.8139 14.7008 80.8139 14.288C80.8139 13.7387 80.7249 13.2311 80.5469 12.7652C80.3726 12.2955 80.1056 11.9186 79.7457 11.6345C79.3859 11.3467 78.9351 11.2027 78.3935 11.2027H78.1491V17.3561H78.3935ZM86.0881 16.2311L89.9347 9.88454H91.7642V18.6118H90.0994V12.2595L86.2699 18.6118H84.4233V9.88454H86.0881V16.2311ZM93.3608 18.6118L93.3551 17.1402H93.6676C93.91 17.1402 94.1127 17.0891 94.2756 16.9868C94.4422 16.8808 94.5786 16.7027 94.6847 16.4527C94.7907 16.2027 94.8722 15.858 94.929 15.4186C94.9858 14.9755 95.0275 14.4186 95.054 13.7482L95.2074 9.88454H101.298V18.6118H99.6335V11.3505H96.7812L96.6449 14.3164C96.6108 15.0361 96.5369 15.6648 96.4233 16.2027C96.3134 16.7406 96.1525 17.1895 95.9403 17.5493C95.7282 17.9054 95.4555 18.1724 95.1222 18.3505C94.7888 18.5247 94.3835 18.6118 93.9062 18.6118H93.3608ZM104.842 12.8845H107.376C108.445 12.8845 109.267 13.1497 109.842 13.68C110.418 14.2103 110.706 14.894 110.706 15.7311C110.706 16.2766 110.577 16.7671 110.32 17.2027C110.062 17.6383 109.685 17.983 109.189 18.2368C108.693 18.4868 108.089 18.6118 107.376 18.6118H103.564V9.88454H105.229V17.1459H107.376C107.865 17.1459 108.267 17.019 108.581 16.7652C108.895 16.5076 109.053 16.18 109.053 15.7823C109.053 15.3618 108.895 15.019 108.581 14.7539C108.267 14.4849 107.865 14.3505 107.376 14.3505H104.842V12.8845Z" fill="#344051"/>
</svg>
