<svg width="101" height="25" viewBox="0 0 101 25" fill="none" xmlns="http://www.w3.org/2000/svg">
<path d="M12.5 17.6118C13.0523 17.6118 13.5 17.1641 13.5 16.6118C13.5 16.0595 13.0523 15.6118 12.5 15.6118C11.9477 15.6118 11.5 16.0595 11.5 16.6118C11.5 17.1641 11.9477 17.6118 12.5 17.6118Z" fill="#141C24"/>
<path d="M13.5 12.6118C13.5 13.1641 13.0523 13.6118 12.5 13.6118C11.9477 13.6118 11.5 13.1641 11.5 12.6118C11.5 12.0595 11.9477 11.6118 12.5 11.6118C13.0523 11.6118 13.5 12.0595 13.5 12.6118Z" fill="#141C24"/>
<path d="M12.5 9.61182C13.0523 9.61182 13.5 9.16409 13.5 8.61182C13.5 8.05954 13.0523 7.61182 12.5 7.61182C11.9477 7.61182 11.5 8.05954 11.5 8.61182C11.5 9.16409 11.9477 9.61182 12.5 9.61182Z" fill="#141C24"/>
<path fill-rule="evenodd" clip-rule="evenodd" d="M2.5 14.6118V18.6118C2.5 19.7164 3.39543 20.6118 4.5 20.6118H20.5C21.6046 20.6118 22.5 19.7164 22.5 18.6118V14.6118C21.3954 14.6118 20.5 13.7164 20.5 12.6118C20.5 11.5072 21.3954 10.6118 22.5 10.6118V6.61182C22.5 5.50723 21.6046 4.61182 20.5 4.61182H4.5C3.39543 4.61182 2.5 5.50726 2.5 6.61182V10.6118C3.60457 10.6118 4.5 11.5072 4.5 12.6118C4.5 13.7164 3.60457 14.6118 2.5 14.6118ZM21 18.6118C21 18.888 20.7761 19.1118 20.5 19.1118H4.5C4.22385 19.1118 4 18.888 4 18.6118V15.775C5.18246 15.2133 6 14.008 6 12.6118C6 11.2156 5.18248 10.0104 4 9.44864V6.61182C4 6.33566 4.22385 6.11182 4.5 6.11182H20.5C20.7761 6.11182 21 6.33566 21 6.61182V9.44864C19.8175 10.0104 19 11.2156 19 12.6118C19 14.008 19.8175 15.2133 21 15.775V18.6118Z" fill="#141C24"/>
<path d="M41.7784 18.6118V6.97545H49.0341V8.48682H43.5341V11.6686H46.1364C47 11.6686 47.733 11.8088 48.3352 12.0891C48.9413 12.3694 49.4034 12.7652 49.7216 13.2766C50.0436 13.788 50.2045 14.3902 50.2045 15.0834C50.2045 15.7766 50.0436 16.3883 49.7216 16.9186C49.4034 17.4489 48.9413 17.8637 48.3352 18.163C47.733 18.4622 47 18.6118 46.1364 18.6118H41.7784ZM43.5341 17.1345H46.1364C46.6364 17.1345 47.0587 17.0361 47.4034 16.8391C47.7519 16.6421 48.0152 16.3864 48.1932 16.072C48.375 15.7576 48.4659 15.4205 48.4659 15.0607C48.4659 14.538 48.2652 14.0891 47.8636 13.7141C47.4621 13.3353 46.8864 13.1459 46.1364 13.1459H43.5341V17.1345ZM53.8068 16.2311L57.6534 9.88454H59.483V18.6118H57.8182V12.2595L53.9886 18.6118H52.142V9.88454H53.8068V16.2311ZM61.0795 18.6118L61.0739 17.1402H61.3864C61.6288 17.1402 61.8314 17.0891 61.9943 16.9868C62.161 16.8808 62.2973 16.7027 62.4034 16.4527C62.5095 16.2027 62.5909 15.858 62.6477 15.4186C62.7045 14.9755 62.7462 14.4186 62.7727 13.7482L62.9261 9.88454H69.017V18.6118H67.3523V11.3505H64.5L64.3636 14.3164C64.3295 15.0361 64.2557 15.6648 64.142 16.2027C64.0322 16.7406 63.8712 17.1895 63.6591 17.5493C63.447 17.9054 63.1742 18.1724 62.8409 18.3505C62.5076 18.5247 62.1023 18.6118 61.625 18.6118H61.0795ZM75.044 18.788C74.1842 18.788 73.4437 18.6042 72.8224 18.2368C72.205 17.8656 71.7277 17.3448 71.3906 16.6743C71.0573 16.0001 70.8906 15.2103 70.8906 14.305C70.8906 13.4111 71.0573 12.6232 71.3906 11.9414C71.7277 11.2595 72.1974 10.7273 72.7997 10.3448C73.4058 9.9622 74.1141 9.77091 74.9247 9.77091C75.4171 9.77091 75.8944 9.85235 76.3565 10.0152C76.8187 10.1781 77.2334 10.4338 77.6009 10.7823C77.9683 11.1308 78.258 11.5834 78.4702 12.1402C78.6823 12.6933 78.7884 13.3656 78.7884 14.1573V14.7595H71.8509V13.4868H77.1236C77.1236 13.0398 77.0327 12.644 76.8509 12.2993C76.669 11.9508 76.4134 11.6762 76.0838 11.4755C75.758 11.2747 75.3755 11.1743 74.9361 11.1743C74.4588 11.1743 74.0421 11.2917 73.6861 11.5266C73.3338 11.7576 73.0611 12.0607 72.8679 12.4357C72.6785 12.8069 72.5838 13.2103 72.5838 13.6459V14.6402C72.5838 15.2236 72.6861 15.7198 72.8906 16.1289C73.099 16.538 73.3887 16.8505 73.7599 17.0664C74.1312 17.2785 74.5649 17.3845 75.0611 17.3845C75.383 17.3845 75.6766 17.3391 75.9418 17.2482C76.2069 17.1535 76.4361 17.0133 76.6293 16.8277C76.8224 16.6421 76.9702 16.413 77.0724 16.1402L78.6804 16.43C78.5516 16.9035 78.3205 17.3183 77.9872 17.6743C77.6577 18.0266 77.2429 18.3012 76.7429 18.4982C76.2467 18.6914 75.6804 18.788 75.044 18.788ZM79.9034 11.3505V9.88454H87.267V11.3505H84.4205V18.6118H82.7614V11.3505H79.9034ZM90.3423 12.8845H92.8764C93.9446 12.8845 94.7666 13.1497 95.3423 13.68C95.9181 14.2103 96.206 14.894 96.206 15.7311C96.206 16.2766 96.0772 16.7671 95.8196 17.2027C95.562 17.6383 95.1851 17.983 94.6889 18.2368C94.1927 18.4868 93.5885 18.6118 92.8764 18.6118H89.0639V9.88454H90.7287V17.1459H92.8764C93.3651 17.1459 93.7666 17.019 94.081 16.7652C94.3954 16.5076 94.5526 16.18 94.5526 15.7823C94.5526 15.3618 94.3954 15.019 94.081 14.7539C93.7666 14.4849 93.3651 14.3505 92.8764 14.3505H90.3423V12.8845ZM97.4446 18.6118V9.88454H99.1435V18.6118H97.4446Z" fill="#344051"/>
</svg>
